<svg id="Layer_1" enable-background="new 0 0 511.999 511.999" height="512" viewBox="0 0 511.999 511.999" width="512" xmlns="http://www.w3.org/2000/svg">
    <g>
        <g clip-rule="evenodd" fill-rule="evenodd">
            <g>
                <path d="m216 220.999c-17.515-30.336-90.885-99.499-139.25-99.499-36.865 0-66.75 27.489-66.75 58.25 0 37.762 33.258 47.191 33.258 76.249s-33.258 38.488-33.258 76.25c0 30.762 29.885 58.25 66.75 58.25 48.365 0 121.735-69.163 139.25-99.499z" fill="#ff7d97"/>
                <path d="m216 220.999v70c0 13.75 11.25 25 25 25 5.616 0 10.814-1.877 14.999-5.034 4.186 3.157 9.384 5.034 15 5.034 13.75 0 25-11.25 25-25v-70c0-13.75-11.25-25-25-25-5.616 0-10.814 1.877-15 5.034-4.186-3.157-9.384-5.034-15-5.034-13.749.001-24.999 11.251-24.999 25z" fill="#ff5d7d"/>
                <path d="m295.999 220.999v70c17.515 30.336 90.885 99.499 139.25 99.499 36.865 0 66.75-27.489 66.75-58.25 0-37.762-33.258-47.191-33.258-76.249s33.258-38.488 33.258-76.249c0-30.762-29.885-58.25-66.75-58.25-48.365 0-121.735 69.163-139.25 99.499z" fill="#ff7d97"/>
            </g>
            <g fill="#ffc144">
                <path d="m143.772 103.722-18.272-30.972-17.778 30.478-30.972 18.272 30.478 17.778 18.272 30.972 13.956-23.925 3.822-6.553 30.972-18.272z"/>
                <path d="m386.499 341.749-13.956 23.926-3.822 6.552-30.972 18.272 30.478 17.778 18.272 30.973 17.778-30.478 30.972-18.273-30.478-17.778z"/>
            </g>
        </g>
        <g>
            <path d="m97 290.751h-.008c-5.522 0-9.996 4.478-9.996 10 .529 13.263 19.479 13.263 20.004 0 0-5.523-4.478-10-10-10z"/>
            <path d="m478.741 256c.713-24.712 33.444-35.535 33.257-76.249.001-36.996-35.147-68.251-76.749-68.251-50.848 2.028-105.987 52.524-136.451 88.258-9.132-12.635-28.403-17.663-42.799-10.374-14.405-7.293-33.685-2.254-42.813 10.394-13.537-16.748-34.66-37.533-58.615-55.057l24.76-14.607c6.52-3.698 6.495-13.588-.043-17.251l-28.227-16.465-16.948-28.729c-1.799-3.049-5.074-4.919-8.613-4.919h-.024c-3.548.009-6.826 1.896-8.613 4.962l-16.466 28.228-26.458 15.608c-40.363 1.368-73.939 32.043-73.939 68.203 0 23.56 11.3 38.018 20.379 49.635 7.195 9.207 12.879 16.479 12.879 26.614s-5.684 17.407-12.879 26.614c-9.079 11.617-20.379 26.075-20.379 49.635 0 36.996 35.147 68.251 76.75 68.251 50.847-2.024 105.989-52.528 136.451-88.258 9.131 12.635 28.404 17.663 42.798 10.374 14.405 7.292 33.682 2.256 42.812-10.391 13.539 16.756 34.656 37.53 58.616 55.054l-24.759 14.607c-6.52 3.698-6.495 13.588.043 17.251l28.227 16.465 16.948 28.729c1.799 3.049 5.074 4.919 8.613 4.919h.024c3.548-.009 6.826-1.896 8.613-4.962l16.466-28.228 26.458-15.608c40.362-1.369 73.938-32.043 73.938-68.203 0-23.56-11.3-38.018-20.379-49.635-7.194-9.207-12.878-16.48-12.878-26.614zm-365.938-144.159c1.472-.868 2.696-2.099 3.557-3.575l9.189-15.753 9.61 16.29c.868 1.472 2.099 2.696 3.575 3.557l15.752 9.188-16.289 9.61c-1.472.868-2.696 2.099-3.557 3.575l-9.189 15.753-9.61-16.29c-.868-1.472-2.099-2.696-3.574-3.557l-15.753-9.189zm38.926 232.451c-29.007 23.01-56.336 36.208-74.979 36.208-30.231 0-56.75-22.547-56.75-48.251 0-16.672 7.839-26.701 16.137-37.319 22.82-26.666 22.781-51.237 0-77.859-8.298-10.619-16.137-20.649-16.137-37.32 0-24.962 25.01-46.947 54.143-48.195l25.796 15.047 16.948 28.729c1.799 3.049 5.074 4.919 8.613 4.919h.024c3.548-.009 6.826-1.896 8.613-4.961l8.474-14.528c27.859 20.427 53.296 47.078 63.388 63.028v5.374c-17.273-8.078-45.013-17.689-71.425-23.293-5.407-1.146-10.712 2.305-11.858 7.706-1.146 5.403 2.304 10.712 7.706 11.858 31.953 6.78 64.405 19.424 75.577 26.241v8.642c-9.529 5.755-37.053 16.993-66.836 24.25-5.366 1.308-8.656 6.718-7.349 12.083 1.287 5.408 6.859 8.664 12.083 7.349 23.712-5.779 47.083-14.223 62.102-21.213v5.421c-8.244 13.02-27.991 35.237-54.27 56.084zm119.27-38.292c-1.726 0-3.409-.293-5-.863v-20.637c-.529-13.268-19.476-13.258-20 0v20.637c-9.444 3.538-20.115-3.933-19.998-14.031.001-.083 0-.167-.001-.25v-69.712c.001-.083.001-.167.001-.25-.117-10.098 10.556-17.569 19.998-14.031v20.637c.529 13.268 19.476 13.258 20 0v-20.637c9.443-3.539 20.116 3.933 19.999 14.031-.001.083 0 .167.001.25v69.712c-.001.083-.001.167-.001.25-.057 8.222-6.764 14.894-14.999 14.894zm128.197 94.158c-1.472.868-2.696 2.099-3.557 3.575l-9.189 15.753-9.61-16.29c-.868-1.472-2.099-2.696-3.575-3.557l-15.752-9.188 16.289-9.61c1.472-.868 2.696-2.099 3.557-3.574l9.189-15.754 9.61 16.29c.868 1.472 2.099 2.696 3.574 3.557l15.753 9.189zm38.66-19.715-25.796-15.047-16.948-28.728c-1.799-3.049-5.075-4.919-8.613-4.919h-.024c-3.548.009-6.826 1.896-8.613 4.961l-8.474 14.527c-27.869-20.432-53.283-47.048-63.389-63.027v-5.375c17.273 8.078 45.012 17.689 71.425 23.293 5.265 1.16 10.735-2.267 11.858-7.706 1.146-5.403-2.304-10.712-7.706-11.858-31.952-6.78-64.404-19.424-75.577-26.24v-8.648c11.173-6.817 43.625-19.46 75.577-26.24 5.402-1.146 8.853-6.455 7.706-11.858-1.146-5.401-6.447-8.854-11.858-7.706-26.412 5.604-54.152 15.216-71.425 23.293v-5.373c8.245-13.02 27.992-35.237 54.271-56.083 29.008-23.011 56.337-36.208 74.979-36.208 30.231 0 56.75 22.547 56.75 48.251 0 16.672-7.839 26.701-16.137 37.319-22.82 26.666-22.781 51.237 0 77.859 8.298 10.618 16.137 20.647 16.137 37.319 0 24.962-25.01 46.946-54.143 48.194z"/>
        </g>
    </g>
</svg>
